<?xml version="1.0" encoding="utf-8"?>
<!-- Generator: Adobe Illustrator 27.5.0, SVG Export Plug-In . SVG Version: 6.00 Build 0)  -->
<svg version="1.1" xmlns="http://www.w3.org/2000/svg" xmlns:xlink="http://www.w3.org/1999/xlink" x="0px" y="0px"
	 viewBox="0 0 750 500" style="enable-background:new 0 0 750 500;" xml:space="preserve">
<g id="BACKGROUND">
	<rect style="fill:#FFFFFF;" width="750" height="500"/>
</g>
<g id="OBJECTS">
	<g>
		<defs>
			<rect id="SVGID_1_" width="750" height="500"/>
		</defs>
		<clipPath id="SVGID_00000052079577674676907500000006830441633396789676_">
			<use xlink:href="#SVGID_1_"  style="overflow:visible;"/>
		</clipPath>
		
			<linearGradient id="SVGID_00000090290069131828511890000007068560077919992742_" gradientUnits="userSpaceOnUse" x1="131.1625" y1="609.306" x2="642.7209" y2="-128.9247">
			<stop  offset="0" style="stop-color:#C8CACC"/>
			<stop  offset="0.1387" style="stop-color:#D5D6D7"/>
			<stop  offset="0.3812" style="stop-color:#E4E5E6"/>
			<stop  offset="0.5713" style="stop-color:#EAEBEB"/>
			<stop  offset="0.7471" style="stop-color:#EEEFEF"/>
			<stop  offset="0.9274" style="stop-color:#FAFAFB"/>
			<stop  offset="0.976" style="stop-color:#FFFFFF"/>
		</linearGradient>
		
			<path style="clip-path:url(#SVGID_00000052079577674676907500000006830441633396789676_);fill:url(#SVGID_00000090290069131828511890000007068560077919992742_);" d="
			M391.878,473.852v-30.888l-29.136-16.821v33.066l-27.136,15.666v-32.487l-28.635,16.532l-27.637-15.955v-30.31
			c0.841-0.222,1.463-0.98,1.463-1.891c0-0.178-0.031-0.348-0.076-0.512l26.499-15.298l0.25-0.144v-33.643L278.836,377.7
			l-28.138-16.245l-28.136,16.244l-27.636-15.955v-31.909l28.636-16.533l-28.636-16.533v-33.067L166.04,280.38l-0.25,0.144v31.912
			l-25.749-14.866c0.044-0.164,0.076-0.334,0.076-0.512c0-0.91-0.622-1.669-1.463-1.891V232.37l27.886-16.1l0.25-0.143v-33.644
			l-28.886,16.678l-0.25,0.144v32.491l-27.635,15.956L82.88,232.083l27.389-15.814l0.25-0.143v-33.644L81.633,199.16l-0.25,0.144
			v64.402L55.634,248.84c0.044-0.164,0.076-0.333,0.076-0.512c0-0.91-0.622-1.669-1.463-1.891v-30.887l-27.636-15.955l27.136-15.666
			l0.5,0.289v-0.578l0.5-0.289l-0.5-0.288v-32.49L27.498,135.13c0.044-0.164,0.076-0.334,0.076-0.512
			c0-1.084-0.879-1.963-1.963-1.963c-1.084,0-1.963,0.879-1.963,1.963c0,0.91,0.623,1.669,1.463,1.891v30.309l-28.636,16.534
			l28.136,16.244l-27.386,15.812l-0.25,0.144v32.489l-0.5,0.289l0.5,0.289v32.49l27.625,15.949l-27.397,15.817l-0.25,0.143v33.642
			l28.887-16.677l0.25-0.144v-31.922l0.021,0.012v-33.066l26.243-15.152c0.242,0.244,0.55,0.419,0.893,0.509v30.885l27.636,15.954
			l-27.386,15.811l-0.25,0.144v32.502l-26.22,15.138c-0.356-0.359-0.849-0.582-1.394-0.582c-1.084,0-1.963,0.879-1.963,1.963
			c0,0.91,0.623,1.669,1.463,1.891v62.76l-27.931,16.127l-0.25,0.144v33.643l0.045-0.026v31.937l28.136,16.243v0.578l0.501-0.289
			l0.499,0.288v-0.576l27.886-16.1l0.25-0.144v-33.643l-27.243,15.729c-0.355-0.359-0.848-0.582-1.393-0.582
			c-0.545,0-1.038,0.223-1.394,0.582L-1.526,475.72l26.659-15.391v0.032l28.635-16.532l28.636,16.532v-33.076l27.864-16.087
			l0.25-0.143v-30.885c0.84-0.222,1.463-0.981,1.463-1.891c0-1.084-0.879-1.963-1.963-1.963s-1.963,0.879-1.963,1.963
			c0,0.178,0.031,0.348,0.076,0.512l-26.499,15.299l-0.25,0.144v31.897l-27.114-15.653v-64.412l27.614-15.942l28.636,16.532V313.59
			l26.243-15.151c0.242,0.244,0.55,0.418,0.893,0.509v30.887l26.749,15.443c-0.044,0.164-0.076,0.334-0.076,0.512
			c0,0.178,0.031,0.347,0.076,0.511l-26.499,15.3l-0.25,0.144v64.939l-26.084,15.061c-0.356-0.499-0.937-0.826-1.596-0.826
			c-1.084,0-1.963,0.879-1.963,1.963c0,0.91,0.623,1.669,1.463,1.891v31.826l28.136-16.245v31.912l29.136,16.821v-33.644
			l-27.608-15.939l27.152-15.676l26.25,15.154c-0.044,0.164-0.076,0.334-0.076,0.512c0,1.084,0.879,1.963,1.963,1.963
			c1.085,0,1.963-0.879,1.963-1.963c0-0.91-0.623-1.668-1.463-1.891V394.81l27.636-15.956l27.136,15.668l-27.386,15.812l-0.25,0.143
			v32.489l-0.5,0.289l0.5,0.289v31.912l-27.886,16.099l-0.25,0.143v33.642l28.886-16.677l0.25-0.144v-31.909l27.136,15.666v0.577
			l0.5-0.289l28.636,16.533v-31.464c0.343-0.091,0.652-0.265,0.895-0.51l26.242,15.15v33.057l28.136-16.244v0.007l28.886-16.677
			l0.25-0.144v-31.91l25.75,14.866c-0.045,0.165-0.076,0.334-0.076,0.513c0,1.084,0.879,1.963,1.963,1.963
			c1.084,0,1.963-0.879,1.963-1.963C393.341,474.832,392.719,474.074,391.878,473.852z M82.383,199.882l27.136-15.667v31.333
			l-27.136,15.667V199.882z M25.089,329.259l-27.137,15.666v-31.331l27.137-15.666V329.259z M53.269,476.598v31.333l-27.136,15.667
			v-29.731c0.84-0.222,1.463-0.98,1.463-1.891c0-0.178-0.032-0.348-0.076-0.512L53.269,476.598z M25.133,493.867v29.73
			l-27.136-15.666v-31.332l25.748,14.866c-0.044,0.164-0.076,0.333-0.076,0.511C23.67,492.887,24.293,493.645,25.133,493.867z
			 M334.607,475.444l-27.136,15.667v-31.326l27.136-15.666V475.444z M278.334,473.852c-0.343,0.091-0.651,0.265-0.893,0.509
			l-25.742-14.863l26.635-15.378V473.852z M251.198,426.72v-31.333l25.749,14.866c-0.044,0.164-0.076,0.333-0.076,0.511
			c0,0.91,0.622,1.668,1.462,1.89v29.733L251.198,426.72z M278.334,408.874c-0.343,0.091-0.651,0.265-0.894,0.51l-25.742-14.862
			l26.636-15.379V408.874z M250.698,427.587l27.136,15.667l-12.327,7.117l-14.808,8.549l-27.136-15.667l12.327-7.117
			L250.698,427.587z M251.198,460.364l25.749,14.867c-0.044,0.164-0.076,0.333-0.076,0.511c0,0.178,0.031,0.348,0.076,0.512
			l-25.749,14.866V460.364z M306.471,394.232l-26.243,15.15c-0.242-0.244-0.551-0.418-0.894-0.509v-30.306l27.137-15.667V394.232z
			 M166.79,343.9v-29.733l27.137,15.667v31.333l-25.749-14.866c0.044-0.164,0.076-0.333,0.076-0.511
			C168.254,344.881,167.631,344.122,166.79,343.9z M166.79,347.682c0.343-0.091,0.652-0.265,0.894-0.509l25.741,14.861
			L166.79,377.41V347.682z M194.427,328.968l-27.137-15.667l13.309-7.684l13.827-7.983l27.136,15.667L194.427,328.968z
			 M166.79,281.102l27.137-15.668v31.334l-27.137,15.667V281.102z M138.654,199.882l27.136-15.667v31.333l-27.136,15.667V199.882z
			 M137.654,264.283l-8.877,5.125l-18.258,10.541v-31.333l27.136-15.667V264.283z M109.519,312.435l-13.568-7.833l-13.568-7.833
			v-31.331l13.568,7.833l13.568,7.833V312.435z M82.383,232.951l27.136,15.666v31.332l-13.568-7.833l-13.568-7.833V232.951z
			 M53.246,246.438c-0.342,0.09-0.65,0.265-0.893,0.508l-26.243-15.152v-31.333l27.136,15.667V246.438z M53.246,151.151v31.334
			l-27.136-15.668v-30.308c0.343-0.091,0.651-0.265,0.893-0.509L53.246,151.151z M25.61,167.684l27.136,15.668L26.111,198.73v-0.001
			l-0.5,0.288l-0.5-0.288v0.001l-26.636-15.379L25.61,167.684z M-2.025,216.129l27.136-15.667v31.333l-27.136,15.667V216.129z
			 M-2.025,249.194l27.136,15.668v31.333l-27.136-15.667V249.194z M25.611,263.996l-27.136-15.668l12.327-7.117l14.808-8.549
			l26.25,15.155c-0.044,0.164-0.076,0.334-0.076,0.512c0,0.178,0.031,0.347,0.076,0.512L25.611,263.996z M54.246,250.219
			c0.343-0.091,0.651-0.265,0.894-0.509l26.243,15.151v31.331l-27.137-15.666V250.219z M54.246,313.591l27.137-15.666v31.331
			l-27.137,15.666V313.591z M26.133,363.925c0.84-0.222,1.463-0.98,1.463-1.891c0-0.178-0.031-0.347-0.076-0.511l25.748-14.866
			v31.332l-27.136,15.666V363.925z M53.269,410.475l-27.136,15.666V394.81l27.136-15.666V410.475z M25.089,459.199l-27.137,15.667
			v-31.333l27.137-15.668V459.199z M26.133,427.297l27.136-15.666v31.331l-27.136,15.666V427.297z M82.383,394.81l26.243-15.15
			c0.242,0.244,0.551,0.418,0.893,0.509v30.307l-27.136,15.666V394.81z M81.404,427.861v30.766l-27.136-15.666V411.63l27.114,15.654
			v0.59L81.404,427.861z M109.519,344.922l-27.136-15.666v-31.331l13.568,7.833l13.568,7.833V344.922z M110.519,312.435v-31.33
			l15.506-8.953l11.629-6.714v29.729c-0.84,0.222-1.463,0.98-1.463,1.891c0,0.178,0.032,0.348,0.076,0.512L110.519,312.435z
			 M138.654,329.258v-30.309c0.343-0.091,0.651-0.265,0.893-0.509l26.243,15.151v30.309c-0.342,0.09-0.65,0.265-0.893,0.508
			L138.654,329.258z M138.654,362.324l26.243-15.151c0.242,0.244,0.55,0.419,0.893,0.509v30.306l-0.5,0.289l0.001,0.001
			l-26.637,15.378V362.324z M138.654,427.297l27.136-15.666v31.331l-27.136,15.666V427.297z M165.79,410.475l-27.136,15.666V394.81
			l27.136-15.666V410.475z M110.475,474.866v-30.093c0.84-0.222,1.463-0.98,1.463-1.891c0-0.063-0.013-0.122-0.019-0.183
			l25.691-14.834v31.334L110.475,474.866z M165.746,507.354l-27.136-15.667v-31.333l27.136,15.667V507.354z M193.927,457.603
			c-0.343,0.091-0.651,0.265-0.893,0.509l-26.244-15.15v-31.33l27.137,15.667V457.603z M166.79,410.475v-31.333l27.137,15.668
			v31.331L166.79,410.475z M194.427,393.944l-27.137-15.668l27.135-15.666l0.502,0.29v-0.002l26.636,15.378L194.427,393.944z
			 M250.698,362.609l27.136,15.667l-26.636,15.379v0l-0.5,0.289l-0.5-0.289v0l-26.636-15.379L250.698,362.609z M223.063,411.054
			l27.136-15.667v31.333l-27.136,15.667V411.054z M222.063,507.94l-27.136,15.666v-31.331l27.136-15.666V507.94z M223.063,475.454
			V444.12l27.136,15.667v31.334L223.063,475.454z M251.699,491.987l25.742-14.863c0.242,0.244,0.551,0.418,0.893,0.509v29.732
			L251.699,491.987z M279.334,473.852V444.12l27.137,15.666v31.332l-25.749-14.866c0.044-0.164,0.075-0.332,0.075-0.51
			C280.797,474.832,280.175,474.074,279.334,473.852z M307.471,523.597v-31.324l27.136-15.667v31.326L307.471,523.597z
			 M362.742,491.695l-27.136,15.666v-31.332l27.136-15.666V491.695z M363.742,459.208v-31.333l27.136,15.667v30.31
			c-0.342,0.091-0.65,0.264-0.892,0.508L363.742,459.208z M758.168,270.386l-28.136-16.245l27.386-15.812l0.25-0.144v-32.489
			l0.5-0.288l-0.5-0.289v-32.489l-27.624-15.949l27.396-15.817l0.25-0.143V107.08l-28.886,16.677l-0.25,0.144v31.922l-0.022-0.013
			v33.067l-26.243,15.151c-0.242-0.244-0.55-0.419-0.893-0.509v-63.369l-28.137-16.244V91.419l-26.75-15.443
			c0.045-0.166,0.078-0.337,0.078-0.516c0-0.178-0.032-0.348-0.076-0.512l26.499-15.298l0.25-0.144V27.608l27.114,15.653v65.551
			l27.243-15.728c0.356,0.359,0.848,0.581,1.394,0.581c1.084,0,1.963-0.879,1.963-1.963c0-0.91-0.623-1.669-1.463-1.891V27.053
			l27.931-16.126l0.25-0.144v-33.645L729.51-6.591v-0.032L700.875,9.909L672.238-6.623v33.076L644.374,42.54l-0.25,0.144v30.885
			c-0.84,0.222-1.463,0.981-1.463,1.891c0,0.91,0.623,1.668,1.463,1.891v30.89l28.136,16.243v31.91l-27.136,15.666v-31.915
			L616.988,123.9v-0.578l-0.501,0.289l-0.499-0.288v0.576L588.103,140l-0.25,0.144v33.644l27.241-15.728
			c0.356,0.359,0.849,0.583,1.395,0.583s1.039-0.223,1.395-0.583l26.241,15.149v65.557l28.636-16.533l27.637,15.954l0,0
			l27.636,15.955l-27.136,15.667l-0.5-0.289v0.578l-0.5,0.289l0.5,0.289v32.489l28.136,16.244v30.309
			c-0.84,0.222-1.463,0.98-1.463,1.891c0,1.084,0.879,1.963,1.963,1.963c1.084,0,1.963-0.879,1.963-1.963
			c0-0.178-0.031-0.348-0.076-0.513l26.499-15.299l0.25-0.144v-33.643l-28.136,16.245v-31.334L758.168,270.386z M729.555,124.478
			l27.136-15.666v31.331l-27.136,15.666V124.478z M756.668,237.608l-27.136,15.667v-31.333l27.136-15.667V237.608z M756.668,204.543
			l-27.136-15.667v-31.334l27.136,15.668V204.543z M729.032,189.742l27.136,15.667l-12.327,7.117l-14.808,8.55l-26.25-15.155
			c0.044-0.164,0.076-0.333,0.076-0.512c0-0.179-0.032-0.348-0.076-0.512L729.032,189.742z M700.397,173.214v30.305
			c-0.343,0.091-0.652,0.265-0.895,0.51l-12.674-7.317l-13.568-7.833v-31.331l13.568,7.833L700.397,173.214z M701.374,43.261
			l27.136-15.666v31.332l-27.136,15.666V43.261z M701.374,107.08V75.749l27.136-15.666v29.729c-0.84,0.223-1.462,0.981-1.462,1.891
			c0,0.178,0.031,0.348,0.076,0.512L701.374,107.08z M729.555-5.462l27.136-15.667v31.334l-27.136,15.667V-5.462z M728.51,26.44
			l-27.136,15.666V10.775L728.51-4.891V26.44z M673.238-4.891l27.136,15.666v31.331L673.26,26.453v-0.59l-0.021,0.012V-4.891z
			 M672.26,27.595v31.332l-26.242,15.15c-0.242-0.244-0.551-0.418-0.893-0.509V43.261L672.26,27.595z M645.124,107.662V77.35
			c0.341-0.09,0.648-0.263,0.891-0.505l26.245,15.152v31.331L645.124,107.662z M700.397,140.727v31.331l-13.568-7.833l-13.568-7.833
			V125.06L700.397,140.727z M588.853,172.054v-31.333l27.136-15.667v29.734c-0.84,0.222-1.463,0.98-1.463,1.891
			c0,0.178,0.031,0.346,0.075,0.51L588.853,172.054z M616.988,154.788v-29.733l27.136,15.667v31.331l-25.748-14.865
			c0.044-0.163,0.075-0.332,0.075-0.51C618.451,155.769,617.829,155.01,616.988,154.788z M645.124,173.214l27.136-15.666v31.329
			l-27.136,15.667V173.214z M645.124,205.7l27.136-15.666v31.333l-27.136,15.667V205.7z M673.26,221.365v-31.331l13.568,7.833
			l12.181,7.032c-0.044,0.164-0.076,0.332-0.076,0.51c0,0.91,0.623,1.668,1.463,1.891v29.731L673.26,221.365z M701.397,207.299
			c0.342-0.091,0.651-0.265,0.893-0.509l26.243,15.151v31.333l-27.136-15.667V207.299z M728.532,255.007L728.532,255.007l0.5-0.288
			l0.5,0.289v-0.001l26.636,15.379l-27.135,15.667l-27.136-15.667L728.532,255.007z M701.397,271.253l27.136,15.667v31.333
			l-27.136-15.667V271.253z M756.668,303.741v31.333l-26.243,15.151c-0.242-0.244-0.55-0.418-0.892-0.508v-30.309L756.668,303.741z
			 M590.316,107.946c0-0.178-0.032-0.348-0.076-0.512l26.499-15.299l0.25-0.144v-64.94l26.085-15.061
			c0.356,0.499,0.936,0.826,1.595,0.826c1.084,0,1.963-0.879,1.963-1.963c0-0.91-0.623-1.669-1.463-1.891v-31.826L617.032-6.617
			v-31.912L587.897-55.35v33.644l27.608,15.939L588.353,9.909l-26.25-15.154c0.044-0.164,0.076-0.333,0.076-0.512
			c0-1.084-0.879-1.963-1.963-1.963c-1.084,0-1.963,0.879-1.963,1.963c0,0.91,0.622,1.669,1.463,1.891v29.728l-0.001,0v33.067
			L532.08,74.883l-27.136-15.667l27.386-15.813l0.25-0.144V10.772l0.5-0.289l-0.5-0.289v-31.911l27.886-16.099l0.25-0.144v-33.643
			L531.83-54.925l-0.25,0.143v31.91l-27.136-15.667v-0.577l-0.5,0.289l-28.636-16.534v31.464c-0.343,0.091-0.652,0.266-0.895,0.51
			l-26.242-15.149v-33.058l-28.136,16.245v-0.007L391.15-38.679l-0.25,0.144v31.909l-27.136-15.666v-0.577l-0.5,0.288l-0.5-0.288
			v0.577L335.129-6.339L306.492-22.87v33.064L279.357,25.86V-6.052l-29.136-16.821v0.001l-28.136-16.245v33.067L195.842,9.1
			c-0.356-0.358-0.848-0.581-1.393-0.581c-1.084,0-1.963,0.879-1.963,1.963s0.879,1.963,1.963,1.963
			c0.545,0,1.038-0.223,1.393-0.581l26.243,15.151v33.067l28.886-16.679l0.25-0.144V11.348l27.136,15.666v33.064l27.242-15.728
			c0.242,0.244,0.551,0.419,0.893,0.509v30.885l29.137,16.82V60.078l28.136,16.244V42.679l-27.635-15.954l27.133-15.665
			L391.9,27.594V-5.471l27.136-15.666v63.824l-27.886,16.1l-0.25,0.144v33.645l27.243-15.729c0.356,0.359,0.848,0.581,1.393,0.581
			c1.084,0,1.963-0.879,1.963-1.963c0-0.91-0.623-1.668-1.463-1.891V43.262l27.886-16.101l0.25-0.144V-4.894l27.137,15.666v30.31
			c-0.84,0.222-1.463,0.98-1.463,1.891c0,0.178,0.032,0.347,0.076,0.512l-26.499,15.299l-0.25,0.143v33.642l28.636-16.532
			l28.137,16.245l28.136-16.244l28.136,16.244l27.637-15.955v29.729c-0.84,0.222-1.463,0.98-1.463,1.891
			c0,1.084,0.879,1.963,1.963,1.963C589.437,109.909,590.316,109.03,590.316,107.946z M615.988,91.414l-26.243,15.15
			c-0.242-0.244-0.55-0.418-0.893-0.509V75.749l0.5-0.289l0,0l26.636-15.378V91.414z M560.716,27.595l27.137,15.666v31.333
			l-27.137-15.667V27.595z M588.853,43.261l27.136-15.666v31.332l-27.136,15.666V43.261z M615.988,26.44l-27.136,15.666V10.775
			l27.136-15.666V26.44z M644.168-21.129V8.965c-0.84,0.222-1.462,0.98-1.462,1.89c0,0.063,0.013,0.122,0.019,0.184l-25.692,14.833
			V-5.462L644.168-21.129z M588.897-53.618l27.136,15.667v31.333l-27.136-15.667V-53.618z M560.717-3.866
			c0.342-0.091,0.651-0.265,0.893-0.509l26.243,15.151v31.33l-27.136-15.666V-3.866z M503.945,26.15l-27.136-15.667l12.327-7.117
			l14.808-8.55l27.136,15.667L518.753,17.6L503.945,26.15z M476.309-20.115c0.342-0.091,0.65-0.265,0.893-0.509l25.743,14.862
			L476.309,9.617V-20.115z M503.444-6.627l-25.749-14.866c0.044-0.164,0.076-0.334,0.076-0.512c0-0.178-0.032-0.347-0.076-0.511
			l25.749-14.866V-6.627z M503.444,27.016V58.35l-25.749-14.867c0.044-0.164,0.076-0.333,0.076-0.51c0-0.91-0.622-1.668-1.463-1.891
			V11.349L503.444,27.016z M476.309,44.863c0.343-0.091,0.651-0.265,0.894-0.51l25.742,14.863l-26.636,15.378V44.863z
			 M531.58,42.682L504.444,58.35V27.016l27.136-15.667V42.682z M532.58-54.203l27.136-15.666v31.332L532.58-22.871V-54.203z
			 M531.58-21.716V9.617L504.444-6.05v-31.333L531.58-21.716z M502.944-38.249l-25.742,14.863c-0.242-0.245-0.551-0.419-0.894-0.51
			v-29.732L502.944-38.249z M447.172-69.861v31.326l-27.136,15.666v-31.325L447.172-69.861z M362.765-21.138v31.331l-27.136,15.666
			V-5.472L362.765-21.138z M307.492-21.138l27.137,15.666v31.331l-13.568-7.833l-13.568-7.833V-21.138z M334.629,58.345
			l-13.568-7.833l-12.181-7.032c0.045-0.164,0.076-0.333,0.076-0.512c0-0.91-0.623-1.669-1.463-1.891v-29.73l13.568,7.833
			l13.568,7.833V58.345z M278.357,25.859l-27.136-15.667v-31.333l27.136,15.667V25.859z M223.085-37.385l27.136,15.668V9.616
			L223.085-6.051V-37.385z M196.336,9.97l26.249-15.155l27.136,15.667l-12.327,7.117l-14.809,8.55l-26.249-15.155
			c0.044-0.164,0.076-0.334,0.076-0.512C196.412,10.304,196.38,10.134,196.336,9.97z M250.221,42.681l-27.136,15.668V27.015
			l27.136-15.667V42.681z M279.357,58.345V27.014l27.136-15.666v29.73c-0.84,0.222-1.463,0.981-1.463,1.891
			c0,0.178,0.032,0.347,0.076,0.512L279.357,58.345z M334.629,90.833l-27.137-15.666V44.86c0.343-0.09,0.651-0.265,0.894-0.509
			l12.675,7.317l13.568,7.833V90.833z M362.765,74.59l-27.136-15.667V27.591l27.136,15.666V74.59z M390.9,25.862l-27.136-15.667
			v-31.333L390.9-5.471V25.862z M391.9-6.626v-31.331l27.136-15.666v31.331L391.9-6.626z M447.172-37.374v31.325L420.036,9.617
			v-31.325L447.172-37.374z M391.9,90.842V59.508l27.136-15.667v29.732c-0.84,0.222-1.463,0.98-1.463,1.891
			c0,0.179,0.032,0.348,0.076,0.512L391.9,90.842z M447.172,26.439l-27.136,15.668V10.773l27.136-15.667V26.439z M448.172-37.38
			l25.749,14.865c-0.044,0.164-0.076,0.333-0.076,0.51c0,0.91,0.623,1.669,1.463,1.891V9.617L448.172-6.049V-37.38z M448.172,59.506
			l26.243-15.151c0.242,0.244,0.551,0.418,0.893,0.509v30.307l-27.137,15.666V59.506z M503.944,91.128l-27.136-15.667l26.636-15.378
			v0l0.5-0.289l0.5,0.289v0l26.636,15.378L503.944,91.128z M533.08,75.461l27.135-15.667l27.137,15.667l-27.137,15.667
			L533.08,75.461z"/>
	</g>
</g>
</svg>
