<svg id="Layer_1" data-name="Layer 1" xmlns="http://www.w3.org/2000/svg" xmlns:xlink="http://www.w3.org/1999/xlink" viewBox="0 0 678 255"><defs><style>.cls-1{fill:none;}.cls-2{clip-path:url(#clip-path);}.cls-3{fill:#f05a22;}</style><clipPath id="clip-path"><rect class="cls-1" width="678" height="255"/></clipPath></defs><g class="cls-2"><circle class="cls-3" cx="74.26" cy="74.26" r="19.26"/><circle class="cls-3" cx="123.286" cy="110.508" r="18.677"/><circle class="cls-3" cx="171.729" cy="146.323" r="18.677"/><path d="M414.686,176.359c0,7.113-4.793,12.208-11.5,12.208a9.3,9.3,0,0,1-8.324-4.692v4.087h-4.339V152.65h4.339v16.193a9.477,9.477,0,0,1,8.576-4.742C410.1,164.1,414.686,169.1,414.686,176.359Zm-4.39,0c0-4.843-3.228-8.324-7.717-8.324-4.642,0-7.921,3.431-7.921,8.324,0,4.843,3.279,8.274,7.921,8.274C407.068,184.633,410.3,181.2,410.3,176.359Z"/><path d="M441.319,164.706v23.71c0,3.683-1.111,6.508-3.128,8.374a11.356,11.356,0,0,1-7.618,2.522c-3.329,0-6.053-.857-7.869-2.421a7.707,7.707,0,0,1-2.623-6h4.389c.2,2.825,1.715,4.742,6.053,4.742,3.934,0,6.457-2.22,6.457-7.517v-4.338a8.488,8.488,0,0,1-8.072,4.742c-6.052,0-8.827-4.036-8.827-9.938V164.706h4.338v12.965c0,4.137,1.362,6.962,5.953,6.962,4.49,0,6.608-3.784,6.608-7.971V164.706Z"/><path d="M470.874,170.1l16.345,17.858h-5.9l-14.781-16.395v16.395h-4.59V152.65h4.59v16.5l14.832-16.5h5.851Z"/><path d="M510.472,177.621h-18.01c.1,4.489,2.876,7.112,7.315,7.112,3.078,0,5.2-1.211,6.155-3.43h4.389c-.808,4.288-5.1,7.264-10.544,7.264-7.163,0-11.653-4.742-11.653-12.258,0-7.365,4.541-12.208,11.451-12.208,6.559,0,11,4.54,11,10.947A23.933,23.933,0,0,1,510.472,177.621Zm-4.187-3.381c0-4.085-2.523-6.608-6.76-6.608s-6.86,2.673-7.063,6.608Z"/><path d="M516.271,164.706h4.388v4.288c1.262-2.976,4.087-4.893,8.122-4.893,5.7,0,8.627,3.329,8.627,9.535v14.326H533.07V175.553c0-5.2-1.716-7.668-5.852-7.668-4.339,0-6.559,3.076-6.559,7.768v12.309h-4.388Z"/><path d="M556.728,184.027v3.885a19.869,19.869,0,0,1-3.935.353c-2.725,0-7.113-.5-7.113-8.021V168.388h-4.187v-3.682h4.187v-7.365h4.388v7.365h5.852v3.682h-5.852v10.9c0,4.44,1.514,5.045,3.734,5.045A16.862,16.862,0,0,0,556.728,184.027Z"/><path d="M560.61,157.19a3.557,3.557,0,1,1,7.113,0,3.557,3.557,0,0,1-7.113,0Zm1.413,7.516h4.338v23.256h-4.338Z"/><path d="M572.061,176.359c0-7.213,4.389-12.208,11.552-12.208,6.255,0,10.291,3.431,10.845,8.627H590.07c-.605-3.078-2.825-4.692-6.507-4.692-4.44,0-7.164,3.077-7.164,8.273,0,5.146,2.724,8.274,7.164,8.274,3.682,0,5.9-1.614,6.507-4.54h4.388c-.554,5.094-4.59,8.474-10.845,8.474C576.45,188.567,572.061,183.573,572.061,176.359Z"/><path d="M598.543,176.359c0-6.81,4.54-12.258,12.106-12.258,7.517,0,12.108,5.448,12.108,12.258,0,6.76-4.591,12.208-12.108,12.208C603.083,188.567,598.543,183.119,598.543,176.359Zm19.825,0c0-4.691-2.825-8.324-7.719-8.324s-7.768,3.633-7.768,8.324c0,4.641,2.875,8.274,7.768,8.274S618.368,181,618.368,176.359Z"/><path d="M242.387,106.856l-17.6-27.5h13.987L249.7,97.349l10.922-17.994H274.6l-17.6,27.5,17.6,27.5H260.617L249.7,116.443l-10.922,17.915H224.786Z"/><path d="M322.061,115.421c0,11.865-7.308,19.958-17.758,19.958-5.579,0-10.137-2.828-12.1-6.364v21.058H280.259V96.484H292.2v5.422c2.043-3.615,6.758-6.443,12.415-6.443C314.989,95.463,322.061,103.478,322.061,115.421Zm-12.258,0c0-5.815-3.693-9.9-8.958-9.9-5.421,0-9.114,4.008-9.114,9.9,0,5.972,3.771,9.979,9.114,9.979C306.11,125.4,309.8,121.314,309.8,115.421Z"/><path d="M366.453,118.721H338.48c.236,4.95,3.536,7.622,8.879,7.622,3.693,0,6.051-1.021,7.072-3.379h11.786c-1.179,7.465-8.8,12.415-18.858,12.415-12.887,0-20.822-7.307-20.822-19.958,0-12.415,8.093-19.958,20.43-19.958,11.786,0,19.8,7.307,19.8,17.994A41.179,41.179,0,0,1,366.453,118.721ZM354.9,111.256c-.078-5.028-2.907-7.7-8.015-7.7-5.185,0-8.329,3.064-8.407,7.7Z"/><path d="M373.68,96.484H385.7v7.937a10.6,10.6,0,0,1,10.451-8.566,11.725,11.725,0,0,1,3.143.315v11.157a27.237,27.237,0,0,0-3.614-.235c-6.523,0-9.98,4.243-9.98,12.65v14.616H373.68Z"/><path d="M404.323,85.876a7.426,7.426,0,1,1,7.386,7.308A7.231,7.231,0,0,1,404.323,85.876Zm1.414,10.608h11.944v37.874H405.737Z"/><path d="M464.589,118.721H436.615c.236,4.95,3.537,7.622,8.88,7.622,3.693,0,6.05-1.021,7.072-3.379h11.786c-1.179,7.465-8.8,12.415-18.858,12.415-12.887,0-20.823-7.307-20.823-19.958,0-12.415,8.094-19.958,20.43-19.958,11.787,0,19.8,7.307,19.8,17.994A41.179,41.179,0,0,1,464.589,118.721Zm-11.551-7.465c-.078-5.028-2.907-7.7-8.015-7.7-5.186,0-8.329,3.064-8.408,7.7Z"/><path d="M471.816,96.484h12.022v5.5c2.2-4.242,6.522-6.521,12.258-6.521,9.194,0,13.83,5.185,13.83,15.479v23.416h-12.1V114.871c0-6.365-1.808-9.272-6.679-9.272-4.794,0-7.308,3.143-7.308,8.958v19.8H471.816Z"/><path d="M516.524,115.421c0-11.943,7.779-19.958,20.272-19.958,11.315,0,18.7,5.972,19.644,15.4H544.418c-.865-3.537-3.144-5.187-7.544-5.187-5.185,0-8.329,3.458-8.329,9.744s3.144,9.744,8.329,9.744c4.4,0,6.679-1.572,7.544-4.872H556.44c-.943,9.193-8.329,15.086-19.644,15.086C524.3,135.379,516.524,127.365,516.524,115.421Z"/><path d="M601.619,118.721H573.647c.235,4.95,3.535,7.622,8.878,7.622,3.693,0,6.051-1.021,7.072-3.379h11.786c-1.178,7.465-8.8,12.415-18.858,12.415-12.886,0-20.822-7.307-20.822-19.958,0-12.415,8.093-19.958,20.429-19.958,11.787,0,19.8,7.307,19.8,17.994A41,41,0,0,1,601.619,118.721Zm-11.55-7.465c-.079-5.028-2.908-7.7-8.015-7.7-5.186,0-8.329,3.064-8.407,7.7Z"/><path class="cls-3" d="M607.354,127.443a7.78,7.78,0,1,1,7.779,7.7A7.681,7.681,0,0,1,607.354,127.443Z"/></g></svg>