<?xml version="1.0" encoding="utf-8"?>
<svg version="1.1" id="Layer_1" xmlns="http://www.w3.org/2000/svg" xmlns:xlink="http://www.w3.org/1999/xlink" x="0px" y="0px"
	 viewBox="0 0 616 147" style="enable-background:new 0 0 616 147;" xml:space="preserve">
<style type="text/css">
	.st0{fill:#3BE081;}
	.st1{fill:#0037FF;}
	.st2{fill:#00CCFF;}
	.st3{fill:#861DFF;}
	.st4{fill:#FC7F10;}
</style>
<path class="st0" d="M49,80.9v17.7c27.2,0,49.3-22.1,49.3-49.4H80.7C80.6,66.7,66.5,80.8,49,80.9z"/>
<path class="st1" d="M49,129.6c-17.4,0-31.4-14.1-31.4-31.4S31.6,66.7,49,66.7c0,0,0,0,0,0V49.2C21.9,49.1,0,71-0.1,98.1
	c0,27.1,21.9,49,48.9,49.1H49V129.6z"/>
<path class="st2" d="M49,129.6v17.6c27.1,0,49-21.9,49-49c0,0,0,0,0,0H80.4C80.4,115.5,66.3,129.6,49,129.6z"/>
<path class="st3" d="M49,31.6v17.6c27.1,0,49-21.9,49-49c0,0,0,0,0,0H80.4C80.4,17.5,66.3,31.6,49,31.6z"/>
<path class="st4" d="M98.3,31.6v17.6c27.1,0,49-21.9,49-49l0,0h-17.6C129.7,17.5,115.6,31.6,98.3,31.6z"/>
<path d="M229.1,73.5h9l2.1,4.8c1.1-1,2.4-1.9,3.7-2.7c1.4-0.7,2.9-1.3,4.4-1.8c1.9-0.6,3.8-0.9,5.8-0.8c3,0,6,0.6,8.7,1.8
	c2.8,1.2,5.2,3,7.3,5.2c2.1,2.3,3.8,5,5,7.9c2.5,6.4,2.5,13.6,0,20c-1.2,2.9-2.9,5.6-5,7.9c-2.1,2.2-4.5,4-7.3,5.2
	c-2.7,1.2-5.7,1.9-8.7,1.9c-1.8,0-3.6-0.2-5.4-0.7c-1.4-0.4-2.7-1-4-1.6c-1.2-0.7-2.4-1.5-3.4-2.4v21.3h-12.2V73.5z M252.5,111.3
	c3.3,0.1,6.5-1.2,8.7-3.6c2.4-2.4,3.5-5.6,3.5-9.7c0.2-3.6-1.1-7.1-3.5-9.7c-4.8-4.8-12.6-4.8-17.4,0c0,0,0,0,0,0l0,0
	c-2.3,2.4-3.5,5.7-3.5,9.7s1.2,7.3,3.5,9.7C246.1,110.1,249.3,111.4,252.5,111.3L252.5,111.3z"/>
<path d="M306.3,123c-2.3,0-4.5-0.4-6.7-1.2c-2-0.8-3.8-2-5.2-3.6c-1.5-1.6-2.6-3.5-3.4-5.5c-0.9-2.3-1.3-4.8-1.2-7.2V84.7h-7.5V74.6
	h3.2c3.9,0,5.9-2,5.9-5.9v-6.9H302v11.7h10.6v11.2H302V105c-0.3,3.5,2.4,6.6,5.9,6.9c0,0,0,0,0,0c0.3,0,0.7,0,1,0c0.5,0,0.9,0,1.4,0
	c0.3,0,0.7-0.1,1-0.2c0.3-0.1,0.6-0.2,0.9-0.3v10.6c-0.5,0.2-1.1,0.4-1.7,0.5C309.1,122.9,307.7,123.1,306.3,123z"/>
<path d="M329.2,67.7c-3.9,0.1-7.2-3-7.3-6.9s3-7.2,6.9-7.3s7.2,3,7.3,6.9c0,1.9-0.7,3.8-2.1,5.2C332.8,66.9,331,67.7,329.2,67.7z
	 M322.8,73.5H335v49h-12.2V73.5z"/>
<path d="M346.7,73.5h9l2.1,4.8c1-1,2.1-1.9,3.3-2.7c1.2-0.7,2.4-1.3,3.6-1.8c1.5-0.6,3.2-0.9,4.8-0.8c2.2-0.1,4.3,0.3,6.4,1
	c1.5,0.6,3,1.3,4.4,2.2c1.2,0.9,2.3,1.9,3.1,3.2c1.2-1.2,2.5-2.3,3.9-3.2c1.5-0.9,3-1.6,4.6-2.2c1.9-0.7,3.9-1,5.9-1
	c5.3,0,9.6,1.7,12.8,5.1c3.2,3.4,4.8,8.4,4.8,15.1v29.3h-12.3V94.3c0.1-2.6-0.7-5.1-2.4-7c-2.7-3.1-7.3-3.4-10.4-0.8c0,0,0,0,0,0
	c-0.3,0.2-0.5,0.5-0.8,0.8c-1.7,1.9-2.5,4.4-2.4,7v28.2H375V94.3c0.1-2.6-0.7-5.1-2.4-7c-2.7-3.1-7.3-3.4-10.4-0.8c0,0,0,0,0,0
	c-0.3,0.2-0.5,0.5-0.8,0.8c-1.7,1.9-2.5,4.4-2.4,7v28.2h-12.2V73.5z"/>
<path d="M433,67.7c-3.9,0.1-7.2-3-7.3-6.9s3-7.2,6.9-7.3c3.9-0.1,7.2,3,7.3,6.9c0.1,2-0.7,3.8-2.1,5.2
	C436.6,66.9,434.8,67.7,433,67.7z M426.6,73.5h12.3v49h-12.3L426.6,73.5z"/>
<path d="M447.9,112.4l21.3-27.1h-21.3V73.5h36.7v10.1l-21.3,27.2h22.3v11.7h-37.8V112.4z"/>
<path d="M516.6,123c-3.2,0-6.5-0.7-9.4-2c-2.9-1.3-5.5-3.1-7.8-5.4c-2.3-2.3-4.1-5-5.3-7.9c-2.6-6.2-2.6-13.3,0-19.5
	c1.3-2.9,3.1-5.6,5.3-7.9c2.2-2.3,4.9-4.1,7.8-5.4c5.9-2.6,12.5-2.6,18.5-0.2c2.8,1.2,5.3,2.9,7.5,5.1c2.2,2.3,3.9,5,5.1,7.9
	c1.3,3.2,1.9,6.7,1.9,10.2c0,0.6,0,1.1-0.1,1.6c-0.1,0.5-0.2,1.1-0.2,1.6s-0.1,1.1-0.2,1.6h-34.1c0.5,2.4,1.8,4.5,3.6,6.1
	c2.1,1.7,4.8,2.6,7.6,2.4c1.4,0,2.8-0.1,4.1-0.5c1-0.3,1.9-0.7,2.8-1.3c0.8-0.5,1.5-1.2,2.1-1.9h12.8c-0.7,2-1.7,3.8-2.9,5.5
	c-1.3,1.9-3,3.6-4.8,5c-1.9,1.5-4.1,2.7-6.4,3.6C521.8,122.6,519.2,123.1,516.6,123z M528.3,94.3c-1.2-6.5-7.4-10.7-13.9-9.5
	c-4.8,0.9-8.6,4.7-9.5,9.5H528.3z"/>
<path d="M549,55.4h12.2v67.1H549V55.4z"/>
<path d="M579.9,140.1c-0.6,0-1.1,0-1.7-0.1c-0.4,0-0.9-0.1-1.3-0.2c-0.4-0.1-0.9-0.2-1.3-0.3v-10.1c2.2,0.1,4.4-0.5,6.2-1.8
	c1.5-1.2,2.6-2.8,3.4-4.6l1.1-2.7l-18.6-46.8h12.8l12.2,31.9l11.2-31.9h12.8c-3.5,8.9-6.6,17-9.5,24.3c-1.2,3.1-2.4,6.2-3.6,9.1
	s-2.2,5.7-3.1,8.1s-1.7,4.5-2.3,6.1s-1,2.6-1.2,2.9c-1,2.5-2.2,5-3.6,7.4c-1,1.8-2.3,3.5-3.8,4.9c-1.2,1.2-2.7,2.2-4.4,2.8
	C583.5,139.8,581.7,140.1,579.9,140.1z"/>
<path d="M183.8,49.2c-20.4,0-36.9,16.5-36.9,36.9s16.5,36.9,36.9,36.9s36.9-16.5,36.9-36.9l0,0C220.7,65.7,204.2,49.2,183.8,49.2
	C183.8,49.2,183.8,49.2,183.8,49.2z M183.8,110.2c-13.3,0.2-24.2-10.5-24.4-23.8c-0.2-13.3,10.5-24.2,23.8-24.4
	c13.3-0.2,24.2,10.5,24.4,23.8c0,0,0,0.1,0,0.1c0,0.1,0,0.2,0,0.3C207.6,99.4,197,110.1,183.8,110.2L183.8,110.2z"/>
</svg>
